<?xml version="1.0" encoding="utf-8"?>
<svg viewBox="475.228 213.765 718.551 96.914" xmlns="http://www.w3.org/2000/svg">
  <defs>
    <style>.a{fill:#009d4b;}.b{isolation:isolate;}.c{fill:#fff;}.d{fill:#29abe2;}.e{fill:#b3b3b3;}.f,.x{fill:none;}.f{stroke:#999;stroke-width:2.24px;}.f,.m,.x{stroke-miterlimit:10;}.g{opacity:0.4;mix-blend-mode:darken;}.h{fill:#999;}.i{font-size:28px;font-family:ProximaNova-Regular, Proxima Nova;}.i,.n{fill:#1a1a1a;}.j{fill:#666;}.k{fill:#e6e6e6;}.l{fill:#4d4d4d;}.m{stroke:gray;stroke-width:1.13px;fill:url(#a);}.o,.p,.r,.s{fill-rule:evenodd;}.o{fill:url(#b);}.p,.u,.y{fill:#f2f2f2;}.p,.s{opacity:0.7;mix-blend-mode:lighten;}.q{fill:#333;}.r{fill:url(#c);}.s{fill:url(#d);}.t{opacity:0.63;mix-blend-mode:multiply;}.u{font-size:32px;}.u,.y{font-family:Tahoma, Tahoma;}.v{letter-spacing:0em;}.w{letter-spacing:-0.1em;}.x{stroke:#f2f2f2;stroke-width:0.7px;}.y{font-size:18.49px;}.z{letter-spacing:0em;}.aa{letter-spacing:-0.02em;}.ab{letter-spacing:0em;}</style>
  </defs>
  <path class="c" d="M680.24,329v-66.7H707q9.28,0,15.14,5.49T728,282.37a21.58,21.58,0,0,1-1.44,8,17,17,0,0,1-3.88,6,19.18,19.18,0,0,1-5.54,3.78,20,20,0,0,1-6.57,1.7l18,27.06h-9.81l-16.89-26.37H688.54V329Zm8.3-33.79H706a13.48,13.48,0,0,0,9.67-3.56,13.18,13.18,0,0,0,0-18.41,13.57,13.57,0,0,0-9.69-3.52H688.54Z" transform="matrix(1.127209, 0, 0, 1.402307, -229.458176, -152.404083)"/>
  <path class="c" d="M806.84,309.66a38.1,38.1,0,0,1,0-28,32.15,32.15,0,0,1,7.25-11,33,33,0,0,1,10.9-7,35.77,35.77,0,0,1,13.45-2.54q16.06,0,25.29,13.23l-6.88,3.91a21.57,21.57,0,0,0-7.86-7.06,21.89,21.89,0,0,0-10.55-2.66,24.45,24.45,0,0,0-18.36,7.59q-7.32,7.59-7.32,19.51a28.91,28.91,0,0,0,3.37,14,24.45,24.45,0,0,0,9.23,9.67,25.35,25.35,0,0,0,13.09,3.44A22.62,22.62,0,0,0,856.85,313l7,3.81q-9.72,13.33-25.39,13.33A35.77,35.77,0,0,1,825,327.63a33,33,0,0,1-10.9-7A32.15,32.15,0,0,1,806.84,309.66Z" transform="matrix(1.127209, 0, 0, 1.402307, -229.458176, -152.404083)"/>
  <path class="c" d="M869.89,269.67v-7.42h50.59v7.42H899.29V329H891V269.67Z" transform="matrix(1.127209, 0, 0, 1.402307, -229.458176, -152.404083)"/>
  <path class="c" d="M931.46,329v-66.7h8.3V329Z" transform="matrix(1.127209, 0, 0, 1.402307, -229.458176, -152.404083)"/>
  <path class="c" d="M955.34,303.07V262.25h8.3v40.58q0,9.33,4.86,14.62t14,5.3q9.09,0,14-5.32t4.91-14.6V262.25h8.3V303q0,12.74-7,20t-20.26,7.23q-13.2,0-20.16-7.25T955.34,303.07Z" transform="matrix(1.127209, 0, 0, 1.402307, -229.458176, -152.404083)"/>
  <path class="c" d="M1025.41,329v-66.7h8.5l38.38,52.1v-52.1h8.3V329h-8l-38.87-53.22V329Z" transform="matrix(1.127209, 0, 0, 1.402307, -229.458176, -152.404083)"/>
  <path class="c" d="M1157.34,269.67v-7.42h50.59v7.42h-21.19V329h-8.3V269.67Z" transform="matrix(1.127209, 0, 0, 1.402307, -229.458176, -152.404083)"/>
  <polygon class="c" points="637.57 291.13 625.16 291.13 625.16 328.95 633.46 328.95 633.46 298.53 668.13 298.53 668.13 291.11 637.57 291.11 637.57 291.13" transform="matrix(1.127209, 0, 0, 1.402307, -229.458176, -152.404083)"/>
  <polygon class="c" points="625.16 262.25 625.16 269.67 637.57 269.67 637.57 269.67 668.86 269.67 668.86 262.25 625.16 262.25" transform="matrix(1.127209, 0, 0, 1.402307, -229.458176, -152.404083)"/>
  <polygon class="c" points="1218.91 291.33 1218.91 298.63 1227.21 298.63 1227.21 298.53 1261.88 298.53 1261.88 291.33 1218.91 291.33" transform="matrix(1.127209, 0, 0, 1.402307, -229.458176, -152.404083)"/>
  <polygon class="c" points="1227.21 269.68 1227.21 269.67 1262.62 269.67 1262.62 262.25 1218.91 262.25 1218.91 269.68 1227.21 269.68" transform="matrix(1.127209, 0, 0, 1.402307, -229.458176, -152.404083)"/>
  <rect class="c" x="1218.91" y="321.83" width="43.7" height="7.12" transform="matrix(1.127209, 0, 0, 1.402307, -229.458176, -152.404083)"/>
  <polygon class="c" points="766.23 270.75 789.25 328.95 798.21 328.95 771.4 262.25 761.1 262.25 734.2 328.95 743.36 328.95 766.23 270.75" transform="matrix(1.127209, 0, 0, 1.402307, -229.458176, -152.404083)"/>
  <polygon class="c" points="1121.26 271.36 1144.28 329.56 1153.24 329.56 1126.43 262.86 1116.13 262.86 1089.23 329.56 1098.39 329.56 1121.26 271.36" transform="matrix(1.127209, 0, 0, 1.402307, -229.458176, -152.404083)"/>
</svg>